<svg width="48" height="48" viewBox="0 0 48 48" fill="none" xmlns="http://www.w3.org/2000/svg">
<path d="M22 24C19.8 24 17.9167 23.2167 16.35 21.65C14.7833 20.0833 14 18.2 14 16C14 13.8 14.7833 11.9167 16.35 10.35C17.9167 8.78333 19.8 8 22 8C24.2 8 26.0833 8.78333 27.65 10.35C29.2167 11.9167 30 13.8 30 16C30 18.2 29.2167 20.0833 27.65 21.65C26.0833 23.2167 24.2 24 22 24ZM22 20C23.1 20 24.0417 19.6083 24.825 18.825C25.6083 18.0417 26 17.1 26 16C26 14.9 25.6083 13.9583 24.825 13.175C24.0417 12.3917 23.1 12 22 12C20.9 12 19.9583 12.3917 19.175 13.175C18.3917 13.9583 18 14.9 18 16C18 17.1 18.3917 18.0417 19.175 18.825C19.9583 19.6083 20.9 20 22 20ZM44.2 47L37.8 40.6C37.1 41 36.35 41.3333 35.55 41.6C34.75 41.8667 33.9 42 33 42C30.5 42 28.375 41.125 26.625 39.375C24.875 37.625 24 35.5 24 33C24 30.5 24.875 28.375 26.625 26.625C28.375 24.875 30.5 24 33 24C35.5 24 37.625 24.875 39.375 26.625C41.125 28.375 42 30.5 42 33C42 33.9 41.8667 34.75 41.6 35.55C41.3333 36.35 41 37.1 40.6 37.8L47 44.2L44.2 47ZM33 38C34.4 38 35.5833 37.5167 36.55 36.55C37.5167 35.5833 38 34.4 38 33C38 31.6 37.5167 30.4167 36.55 29.45C35.5833 28.4833 34.4 28 33 28C31.6 28 30.4167 28.4833 29.45 29.45C28.4833 30.4167 28 31.6 28 33C28 34.4 28.4833 35.5833 29.45 36.55C30.4167 37.5167 31.6 38 33 38ZM6 40V34.45C6 33.3167 6.28333 32.2667 6.85 31.3C7.41667 30.3333 8.2 29.6 9.2 29.1C10.9 28.2333 12.8167 27.5 14.95 26.9C17.0833 26.3 19.45 26 22.05 26C21.65 26.6 21.3083 27.2417 21.025 27.925C20.7417 28.6083 20.5167 29.3167 20.35 30.05C18.35 30.2167 16.5667 30.5583 15 31.075C13.4333 31.5917 12.1167 32.1333 11.05 32.7C10.7167 32.8667 10.4583 33.1083 10.275 33.425C10.0917 33.7417 10 34.0833 10 34.45V36H20.35C20.5167 36.7333 20.7417 37.4333 21.025 38.1C21.3083 38.7667 21.65 39.4 22.05 40H6Z" fill="black"/>
</svg>
